<?xml version="1.0" standalone="no"?>
<!DOCTYPE svg PUBLIC "-//W3C//DTD SVG 20010904//EN"
 "http://www.w3.org/TR/2001/REC-SVG-20010904/DTD/svg10.dtd">
<svg version="1.0" xmlns="http://www.w3.org/2000/svg"
 width="512.000000pt" height="512.000000pt" viewBox="0 0 512.000000 512.000000"
 preserveAspectRatio="xMidYMid meet">

<g transform="translate(0.000000,512.000000) scale(0.100000,-0.100000)"
fill="#000000" stroke="none">
<path d="M2270 4960 c-741 -152 -1362 -631 -1699 -1310 -119 -240 -187 -448
-232 -714 -27 -157 -36 -476 -20 -642 75 -731 474 -1389 1089 -1796 321 -212
675 -342 1072 -394 174 -23 535 -15 703 15 522 93 958 313 1331 671 100 96
204 218 231 270 39 76 15 209 -51 274 -62 61 -96 70 -237 68 -523 -10 -1007
153 -1392 468 -85 70 -254 243 -316 325 -146 191 -265 418 -337 646 -107 335
-120 719 -37 1073 46 197 148 436 267 626 78 125 93 165 84 231 -13 93 -57
159 -134 198 -57 29 -152 26 -322 -9z"/>
</g>
</svg>
