<?xml version="1.0" standalone="no"?>
<!DOCTYPE svg PUBLIC "-//W3C//DTD SVG 20010904//EN"
 "http://www.w3.org/TR/2001/REC-SVG-20010904/DTD/svg10.dtd">
<svg version="1.0" xmlns="http://www.w3.org/2000/svg"
 width="512.000000pt" height="512.000000pt" viewBox="0 0 512.000000 512.000000"
 preserveAspectRatio="xMidYMid meet">

<g transform="translate(0.000000,512.000000) scale(0.100000,-0.100000)"
fill="#000000" stroke="none">
<path d="M2322 4966 c-661 -129 -1224 -500 -1587 -1046 -222 -333 -354 -686
-407 -1090 -21 -159 -16 -481 10 -645 87 -554 335 -1029 737 -1413 380 -363
859 -589 1405 -663 126 -17 490 -18 605 0 583 86 1054 319 1450 715 179 180
218 235 223 319 4 74 -18 136 -69 187 -63 63 -93 70 -296 70 -359 0 -654 69
-955 222 -216 109 -376 227 -544 399 -662 682 -768 1717 -258 2520 72 113 84
143 84 206 0 68 -23 125 -70 171 -73 74 -143 84 -328 48z m-195 -488 c-124
-303 -173 -473 -209 -723 -19 -137 -17 -514 5 -655 135 -888 715 -1617 1546
-1944 170 -67 398 -125 596 -151 l50 -7 -45 -40 c-116 -104 -377 -253 -563
-322 -244 -91 -454 -128 -722 -128 -347 1 -604 59 -904 205 -609 295 -1020
845 -1131 1514 -27 161 -30 442 -6 605 107 731 585 1341 1266 1615 116 46 124
49 117 31z"/>
</g>
</svg>
